<?xml version="1.0" encoding="UTF-8"?>
<svg xmlns="http://www.w3.org/2000/svg" width="1254" height="1254" viewBox="0 0 1254 1254">
  <title>cachorro_expr_03</title>
  <path d="M 414.0 1012.0 L 408.0 1012.0 L 407.0 1016.0 L 409.0 1017.0 L 407.0 1019.0 L 414.0 1016.0 L 415.0 1017.0 L 410.0 1021.0 L 416.0 1017.0 Z
M 411.0 1005.0 L 413.0 1007.0 L 411.0 1009.0 L 409.0 1008.0 L 409.0 1010.0 L 415.0 1010.0 L 417.0 1005.0 Z
M 419.0 977.0 L 417.0 979.0 L 420.0 981.0 L 414.0 981.0 L 413.0 983.0 L 415.0 984.0 L 412.0 985.0 L 412.0 989.0 L 413.0 988.0 L 415.0 991.0 L 414.0 993.0 L 411.0 993.0 L 411.0 1002.0 L 413.0 1003.0 L 418.0 1001.0 L 417.0 1000.0 L 414.0 1002.0 L 413.0 998.0 L 418.0 997.0 L 419.0 993.0 L 416.0 996.0 L 413.0 994.0 L 420.0 989.0 L 415.0 986.0 L 418.0 982.0 L 421.0 982.0 L 421.0 978.0 Z
M 416.0 961.0 L 416.0 965.0 L 417.0 964.0 L 419.0 967.0 L 415.0 968.0 L 415.0 972.0 L 419.0 972.0 L 421.0 974.0 L 423.0 969.0 L 419.0 966.0 L 419.0 963.0 L 422.0 962.0 L 422.0 966.0 L 424.0 961.0 L 419.0 961.0 L 418.0 964.0 Z
M 771.0 495.0 L 773.0 500.0 L 790.0 519.0 L 794.0 517.0 L 805.0 498.0 L 804.0 495.0 Z
M 806.0 474.0 L 792.0 454.0 L 787.0 452.0 L 770.0 479.0 L 777.0 480.0 L 803.0 477.0 Z
M 128.0 359.0 L 134.0 406.0 L 136.0 409.0 L 167.0 396.0 L 185.0 386.0 L 185.0 373.0 L 183.0 371.0 L 136.0 361.0 L 130.0 358.0 Z
M 167.0 267.0 L 127.0 322.0 L 126.0 328.0 L 172.0 346.0 L 199.0 353.0 L 208.0 343.0 L 212.0 333.0 L 206.0 326.0 L 170.0 268.0 Z
M 321.0 302.0 L 305.0 431.0 L 345.0 404.0 L 360.0 396.0 L 518.0 472.0 L 592.0 445.0 L 597.0 447.0 L 597.0 449.0 L 593.0 452.0 L 518.0 479.0 L 378.0 411.0 L 358.0 403.0 L 316.0 431.0 L 306.0 461.0 L 306.0 476.0 L 327.0 482.0 L 374.0 502.0 L 499.0 563.0 L 459.0 815.0 L 452.0 847.0 L 453.0 851.0 L 447.0 889.0 L 440.0 922.0 L 440.0 931.0 L 437.0 941.0 L 431.0 985.0 L 423.0 1021.0 L 424.0 1031.0 L 445.0 1061.0 L 571.0 1065.0 L 652.0 1065.0 L 687.0 1063.0 L 765.0 1065.0 L 770.0 1064.0 L 775.0 1059.0 L 794.0 1026.0 L 827.0 1045.0 L 946.0 1059.0 L 953.0 1057.0 L 941.0 1041.0 L 940.0 1037.0 L 935.0 1031.0 L 936.0 1029.0 L 949.0 1029.0 L 955.0 1027.0 L 962.0 1028.0 L 974.0 1025.0 L 985.0 1025.0 L 1005.0 1020.0 L 1033.0 1017.0 L 1053.0 1011.0 L 1065.0 1005.0 L 1081.0 1001.0 L 1092.0 996.0 L 1108.0 984.0 L 1115.0 982.0 L 1137.0 965.0 L 1149.0 952.0 L 1166.0 921.0 L 1169.0 910.0 L 1181.0 886.0 L 1178.0 884.0 L 1159.0 892.0 L 1150.0 893.0 L 1147.0 888.0 L 1176.0 829.0 L 1178.0 811.0 L 1160.0 734.0 L 1148.0 701.0 L 1130.0 666.0 L 1128.0 665.0 L 1126.0 667.0 L 1122.0 679.0 L 1111.0 696.0 L 1107.0 700.0 L 1105.0 699.0 L 1101.0 689.0 L 1096.0 683.0 L 1090.0 667.0 L 1082.0 654.0 L 1039.0 600.0 L 1028.0 590.0 L 1012.0 581.0 L 991.0 573.0 L 985.0 573.0 L 976.0 568.0 L 946.0 567.0 L 887.0 573.0 L 875.0 576.0 L 861.0 576.0 L 858.0 578.0 L 858.0 581.0 L 861.0 584.0 L 870.0 588.0 L 881.0 596.0 L 888.0 598.0 L 936.0 632.0 L 956.0 652.0 L 961.0 664.0 L 962.0 675.0 L 966.0 683.0 L 969.0 699.0 L 967.0 701.0 L 936.0 693.0 L 899.0 691.0 L 899.0 693.0 L 912.0 706.0 L 921.0 710.0 L 926.0 715.0 L 946.0 748.0 L 949.0 756.0 L 951.0 784.0 L 947.0 815.0 L 944.0 824.0 L 943.0 843.0 L 941.0 845.0 L 939.0 842.0 L 913.0 825.0 L 904.0 822.0 L 903.0 826.0 L 910.0 840.0 L 911.0 881.0 L 908.0 894.0 L 901.0 910.0 L 890.0 928.0 L 885.0 940.0 L 876.0 947.0 L 845.0 963.0 L 826.0 966.0 L 818.0 965.0 L 822.0 972.0 L 816.0 977.0 L 783.0 977.0 L 792.0 983.0 L 787.0 987.0 L 772.0 979.0 L 770.0 974.0 L 774.0 971.0 L 783.0 973.0 L 814.0 971.0 L 797.0 952.0 L 788.0 938.0 L 773.0 923.0 L 773.0 920.0 L 768.0 915.0 L 768.0 912.0 L 763.0 905.0 L 764.0 902.0 L 768.0 902.0 L 772.0 905.0 L 790.0 908.0 L 793.0 906.0 L 793.0 902.0 L 743.0 812.0 L 744.0 808.0 L 771.0 809.0 L 773.0 804.0 L 741.0 716.0 L 769.0 715.0 L 771.0 711.0 L 731.0 646.0 L 732.0 644.0 L 762.0 645.0 L 764.0 641.0 L 720.0 577.0 L 721.0 574.0 L 737.0 572.0 L 745.0 573.0 L 749.0 570.0 L 749.0 567.0 L 710.0 505.0 L 711.0 502.0 L 736.0 503.0 L 738.0 501.0 L 717.0 467.0 L 711.0 421.0 L 708.0 410.0 L 726.0 362.0 L 762.0 277.0 L 761.0 276.0 L 738.0 287.0 L 640.0 342.0 L 627.0 348.0 L 621.0 347.0 L 609.0 342.0 L 604.0 336.0 L 570.0 229.0 L 566.0 226.0 L 554.0 253.0 L 512.0 365.0 L 504.0 373.0 L 491.0 380.0 L 486.0 380.0 L 339.0 304.0 L 326.0 301.0 Z
M 514.0 582.0 L 521.0 582.0 L 560.0 592.0 L 553.0 598.0 L 529.0 610.0 L 514.0 585.0 Z
M 553.0 593.0 L 532.0 602.0 L 531.0 605.0 Z
M 545.0 592.0 L 541.0 591.0 L 528.0 597.0 L 527.0 599.0 L 528.0 601.0 Z
M 536.0 589.0 L 530.0 589.0 L 524.0 592.0 L 524.0 594.0 L 526.0 595.0 L 535.0 591.0 Z
M 650.0 405.0 L 648.0 408.0 L 619.0 411.0 L 618.0 421.0 L 614.0 427.0 L 580.0 423.0 L 577.0 420.0 L 579.0 416.0 L 623.0 400.0 L 643.0 399.0 Z
M 715.0 326.0 L 716.0 328.0 L 687.0 356.0 L 687.0 358.0 L 693.0 358.0 L 695.0 360.0 L 688.0 367.0 L 693.0 372.0 L 690.0 375.0 L 683.0 377.0 L 682.0 375.0 L 687.0 372.0 L 683.0 369.0 L 683.0 367.0 L 690.0 361.0 L 681.0 360.0 L 680.0 357.0 L 713.0 326.0 Z
M 558.0 289.0 L 561.0 323.0 L 558.0 326.0 L 551.0 324.0 L 551.0 332.0 L 546.0 335.0 L 547.0 338.0 L 545.0 340.0 L 541.0 336.0 L 540.0 332.0 L 548.0 330.0 L 548.0 320.0 L 557.0 321.0 L 555.0 290.0 Z" fill="#FFFFFF" fill-rule="evenodd"/>
</svg>
