<svg xmlns="http://www.w3.org/2000/svg" width="1080" height="1350" viewBox="0 0 810 1012.49997" preserveAspectRatio="xMidYMid meet" role="img">
  <g fill="#ffffff" fill-rule="evenodd">
    <path d="M 234.750 567.562 L 220.500 567.562 L 207.750 566.062 L 195.000 563.062 L 178.125 556.687 L 165.750 549.937 L 152.625 540.562 L 137.438 526.125 L 130.312 517.500 L 122.062 505.500 L 114.562 491.625 L 108.562 477.000 L 104.062 461.625 L 101.438 447.750 L 99.938 430.500 L 100.312 412.875 L 102.750 395.812 L 352.312 396.000 L 354.938 415.875 L 354.938 434.250 L 351.562 459.000 L 348.562 470.625 L 342.188 487.875 L 335.812 500.625 L 328.312 512.625 L 318.938 524.625 L 310.125 533.812 L 299.625 542.812 L 288.750 550.312 L 275.250 557.437 L 261.375 562.687 L 249.375 565.687 L 234.750 567.562 Z"/>
    <path d="M 607.875 567.562 L 593.625 567.562 L 580.875 566.062 L 565.500 562.312 L 551.250 556.687 L 538.875 549.937 L 523.875 539.062 L 510.562 526.125 L 504.562 519.000 L 495.188 505.500 L 487.312 490.875 L 482.062 478.125 L 477.188 461.625 L 474.562 447.750 L 473.062 431.250 L 473.438 412.500 L 475.875 395.812 L 725.438 396.000 L 728.062 416.250 L 728.062 433.875 L 725.062 457.125 L 721.312 471.750 L 717.188 483.375 L 708.938 500.625 L 702.188 511.500 L 693.938 522.375 L 683.625 533.437 L 671.250 543.937 L 659.250 551.812 L 648.375 557.437 L 634.500 562.687 L 622.500 565.687 L 607.875 567.562 Z"/>
  </g>
</svg>
