<svg xmlns="http://www.w3.org/2000/svg" width="1080" height="1350" viewBox="0 0 810 1012.49997" preserveAspectRatio="xMidYMid meet" role="img">
  <g fill="#ffffff" fill-rule="evenodd">
    <path d="M 276.750 506.062 L 257.625 506.062 L 249.750 505.312 L 236.250 503.062 L 223.500 499.687 L 211.875 495.562 L 196.875 488.437 L 175.500 474.187 L 167.250 467.062 L 154.312 453.375 L 144.562 440.250 L 139.312 431.625 L 131.438 415.500 L 127.688 405.375 L 123.562 390.000 L 122.062 379.875 L 123.750 379.687 L 380.812 450.375 L 380.812 452.250 L 378.188 455.625 L 363.750 470.062 L 349.125 481.312 L 336.000 489.187 L 323.250 495.187 L 307.125 500.812 L 290.250 504.562 L 276.750 506.062 Z"/>
    <path d="M 586.875 504.562 L 572.250 504.562 L 556.125 502.687 L 541.875 499.312 L 523.875 492.562 L 509.250 484.687 L 495.000 474.562 L 479.812 460.125 L 472.688 450.750 L 696.750 385.687 L 711.375 381.562 L 713.062 381.750 L 711.562 394.125 L 708.188 408.375 L 702.938 423.000 L 697.312 434.625 L 685.312 453.000 L 668.250 471.187 L 658.500 479.062 L 649.500 485.062 L 631.125 494.437 L 608.625 501.562 L 586.875 504.562 Z"/>
  </g>
</svg>
