<svg xmlns="http://www.w3.org/2000/svg" width="1080" height="1350" viewBox="0 0 810 1012.49997" preserveAspectRatio="xMidYMid meet" role="img">
  <g fill="#ffffff" fill-rule="evenodd">
    <path d="M 479.250 492.937 L 477.375 492.937 L 475.688 490.500 L 467.062 473.625 L 462.562 460.500 L 459.562 446.250 L 458.438 434.625 L 458.812 419.250 L 460.312 408.375 L 463.688 394.875 L 467.812 383.625 L 473.438 372.000 L 481.688 358.875 L 490.312 348.000 L 498.750 339.187 L 513.000 327.187 L 523.500 320.062 L 539.625 311.437 L 550.500 306.937 L 570.750 300.937 L 582.750 298.687 L 597.750 297.187 L 623.250 297.937 L 640.875 300.937 L 650.625 303.562 L 664.125 308.437 L 678.750 315.562 L 688.500 321.562 L 699.000 329.437 L 710.438 340.125 L 717.562 348.375 L 726.188 360.750 L 732.188 372.000 L 737.438 385.500 L 740.438 397.125 L 742.688 413.250 L 742.688 427.875 L 740.812 442.500 L 737.812 454.500 L 733.312 466.875 L 728.625 476.062 L 700.125 473.062 L 665.625 471.187 L 625.125 471.187 L 595.500 472.687 L 567.750 475.312 L 534.000 480.187 L 502.500 486.562 L 479.250 492.937 Z"/>
    <path d="M 359.250 487.687 L 335.625 477.187 L 309.375 468.562 L 275.625 461.437 L 241.125 458.062 L 204.750 458.437 L 167.250 462.937 L 133.125 470.812 L 117.750 475.687 L 96.000 483.937 L 91.688 474.000 L 88.688 464.250 L 85.312 444.375 L 85.312 425.625 L 86.812 414.375 L 89.438 403.125 L 93.938 390.375 L 99.188 379.500 L 106.688 367.500 L 116.062 355.875 L 126.000 345.937 L 137.250 336.937 L 150.750 328.312 L 162.750 322.312 L 171.000 318.937 L 189.750 313.312 L 201.375 311.062 L 215.625 309.562 L 243.000 310.312 L 259.125 312.937 L 270.750 315.937 L 284.625 320.812 L 300.375 328.312 L 320.250 341.437 L 327.000 347.062 L 341.062 361.500 L 347.438 369.750 L 356.062 383.625 L 360.562 393.000 L 365.438 406.500 L 368.062 417.375 L 369.938 432.750 L 369.938 444.375 L 368.438 458.625 L 365.062 472.875 L 359.250 487.687 Z"/>
  </g>
</svg>
