<svg xmlns="http://www.w3.org/2000/svg" width="1080" height="1350" viewBox="0 0 810 1012.49997" preserveAspectRatio="xMidYMid meet" role="img">
  <g fill="#ffffff" fill-rule="evenodd">
    <path d="M 237.375 554.437 L 217.500 554.062 L 199.500 550.687 L 183.375 545.062 L 166.875 536.437 L 152.250 525.937 L 135.938 510.000 L 122.812 492.375 L 112.688 473.625 L 105.562 454.500 L 100.688 432.750 L 99.188 418.875 L 99.562 393.750 L 102.188 376.500 L 107.438 357.750 L 114.562 340.875 L 125.625 322.687 L 126.750 322.687 L 135.188 332.250 L 150.000 346.687 L 169.875 363.187 L 193.500 379.687 L 225.000 397.687 L 255.000 411.562 L 282.750 422.062 L 316.500 432.187 L 352.312 440.250 L 350.812 450.000 L 347.812 461.250 L 339.188 483.000 L 333.188 493.875 L 325.312 505.500 L 318.188 514.125 L 308.250 524.062 L 291.375 536.812 L 277.500 544.312 L 259.875 550.687 L 249.750 552.937 L 237.375 554.437 Z"/>
    <path d="M 607.875 567.562 L 593.625 567.562 L 583.125 566.437 L 570.750 563.812 L 560.250 560.437 L 551.250 556.687 L 538.875 549.937 L 529.500 543.562 L 520.875 536.437 L 504.562 519.000 L 497.062 508.500 L 490.688 497.625 L 484.688 484.875 L 479.812 471.375 L 476.438 458.250 L 474.938 448.500 L 502.500 446.812 L 538.500 442.312 L 571.875 435.937 L 602.625 428.062 L 633.000 418.312 L 664.125 405.937 L 693.000 392.062 L 720.375 376.687 L 724.312 389.625 L 727.312 407.250 L 728.062 416.250 L 727.312 442.875 L 724.312 460.500 L 719.438 477.375 L 712.688 493.500 L 706.312 505.125 L 698.438 516.750 L 687.938 529.125 L 676.500 539.812 L 663.000 549.562 L 648.375 557.437 L 634.500 562.687 L 622.500 565.687 L 607.875 567.562 Z"/>
  </g>
</svg>
