<svg xmlns="http://www.w3.org/2000/svg" width="1080" height="1350" viewBox="0 0 810 1012.49997" preserveAspectRatio="xMidYMid meet" role="img">
  <g fill="#ffffff" fill-rule="evenodd">
    <path d="M 234.750 567.562 L 220.500 567.562 L 210.000 566.437 L 197.625 563.812 L 184.125 559.312 L 169.500 552.187 L 159.000 545.437 L 147.375 536.062 L 137.438 526.125 L 128.062 514.500 L 122.062 505.500 L 110.812 483.000 L 107.062 472.500 L 103.312 458.250 L 101.062 444.750 L 99.938 430.500 L 101.062 405.375 L 102.938 393.750 L 106.312 380.250 L 111.938 364.500 L 119.062 349.875 L 126.562 337.875 L 133.688 328.500 L 138.562 322.875 L 152.250 309.937 L 161.250 303.187 L 171.750 296.812 L 182.625 291.562 L 198.000 286.312 L 210.750 283.687 L 222.375 282.562 L 232.875 282.562 L 246.750 284.062 L 261.000 287.437 L 273.375 291.937 L 285.375 297.937 L 298.500 306.562 L 306.750 313.312 L 318.188 324.750 L 332.438 343.875 L 342.938 364.125 L 347.812 377.250 L 351.188 389.625 L 353.062 399.000 L 354.938 415.875 L 354.188 443.250 L 351.562 459.000 L 348.562 470.625 L 343.312 485.250 L 338.062 496.500 L 331.312 508.125 L 324.188 518.250 L 315.188 528.750 L 306.000 537.562 L 295.500 545.812 L 284.250 552.937 L 270.000 559.687 L 261.375 562.687 L 249.375 565.687 L 234.750 567.562 Z"/>
    <path d="M 607.875 567.562 L 593.625 567.562 L 583.125 566.437 L 570.750 563.812 L 557.250 559.312 L 546.000 554.062 L 532.125 545.437 L 520.875 536.437 L 510.562 526.125 L 501.188 514.500 L 495.188 505.500 L 487.312 490.875 L 483.188 481.125 L 476.438 458.250 L 474.562 447.750 L 473.062 431.250 L 473.062 418.875 L 474.562 402.375 L 477.562 387.000 L 480.562 376.500 L 489.938 354.000 L 495.938 343.500 L 506.438 328.875 L 523.125 311.812 L 534.375 303.187 L 544.125 297.187 L 555.750 291.562 L 571.125 286.312 L 583.875 283.687 L 595.500 282.562 L 606.000 282.562 L 619.875 284.062 L 634.125 287.437 L 646.500 291.937 L 658.500 297.937 L 671.625 306.562 L 679.875 313.312 L 690.938 324.375 L 704.812 342.750 L 716.062 364.125 L 720.562 376.125 L 724.312 389.625 L 726.938 404.250 L 728.062 416.250 L 727.312 442.875 L 725.062 457.125 L 721.312 471.750 L 712.312 494.250 L 704.438 508.125 L 695.812 520.125 L 687.938 529.125 L 676.500 539.812 L 668.625 545.812 L 656.625 553.312 L 643.125 559.687 L 634.500 562.687 L 622.500 565.687 L 607.875 567.562 Z"/>
  </g>
</svg>
