<svg xmlns="http://www.w3.org/2000/svg" width="1080" height="1350" viewBox="0 0 810 1012.49997" preserveAspectRatio="xMidYMid meet" role="img">
  <g fill="#ffffff" fill-rule="evenodd">
    <path d="M 342.375 486.937 L 105.750 467.062 L 101.438 447.750 L 99.938 430.500 L 101.062 405.375 L 105.188 384.375 L 105.750 383.812 L 349.500 383.812 L 352.312 394.875 L 354.562 410.625 L 354.938 434.250 L 351.562 459.000 L 348.562 470.625 L 342.375 486.937 Z"/>
    <path d="M 697.875 517.312 L 492.000 499.687 L 485.812 487.500 L 479.812 471.375 L 476.438 458.250 L 473.812 441.750 L 473.062 431.250 L 473.438 412.500 L 475.688 395.625 L 478.312 384.375 L 478.875 383.812 L 722.625 383.812 L 725.812 397.125 L 728.062 416.250 L 728.062 433.875 L 725.438 455.250 L 721.312 471.750 L 714.938 488.625 L 706.312 505.125 L 697.875 517.312 Z"/>
  </g>
</svg>
